<svg width="204" height="181" viewBox="0 0 204 181" fill="none" xmlns="http://www.w3.org/2000/svg">
<path d="M84.6528 108.269C81.3751 108.489 78.8446 107.385 77.7177 104.161C76.5974 100.968 77.9456 98.3422 80.732 95.8106C77.3505 94.6905 74.7009 93.0561 74.6748 89.2358C74.6534 85.9597 76.465 83.8646 79.3412 82.5261C79.6433 82.4455 79.9391 82.3749 80.2412 82.2943C81.7952 82.1397 83.5096 82.1101 84.5763 83.1179C86.5297 84.955 86.7956 83.6166 87.9582 82.0305C89.5554 79.8332 89.9096 78.7566 87.2261 77.6432C86.2505 77.2322 85.7379 75.7827 85.022 74.8071C84.9324 74.3778 84.8427 73.9485 84.7467 73.5293C84.8767 70.4563 85.9258 67.8849 88.9421 66.5342C92.2886 65.0365 94.897 66.3127 97.4058 69.0003C98.5927 65.4017 100.425 62.722 104.187 62.4899C107.404 62.3026 109.376 64.0257 110.528 66.8488C110.591 67.1508 110.645 67.4471 110.708 67.7492C110.442 69.1294 110.626 70.8933 109.834 71.8014C107.703 74.2586 109.242 74.511 110.945 75.7519C112.994 77.2444 113.56 76.7407 114.71 74.772C115.357 73.6508 116.882 73.034 118.012 72.1783C118.33 72.0934 118.654 71.9984 118.972 71.9136C122.284 71.617 124.796 72.7511 125.942 75.9452C127.078 79.1335 125.8 81.7744 123.026 84.2857C126.236 85.5103 129.009 87.0112 129.036 90.8734C129.057 94.1494 127.265 96.2562 124.434 97.6498C124.068 97.7474 123.709 97.8349 123.352 97.9384C121.999 97.7288 120.309 97.9535 119.366 97.2149C117.328 95.6184 116.848 96.4517 115.656 98.4232C114.503 100.334 113.831 101.177 116.225 102.267C117.319 102.764 117.871 104.362 118.661 105.452C118.737 105.818 118.814 106.183 118.9 106.555C118.934 109.853 117.704 112.481 114.487 113.793C111.291 115.091 108.733 114.053 106.43 111.268C105.052 114.792 103.157 117.615 99.2378 117.737C96.2267 117.828 94.3513 116.163 93.1627 113.568C93.0664 113.107 92.9797 112.651 92.8771 112.2C92.8446 109.876 93.7293 107.843 95.241 106.08C92.4015 103.859 89.798 102.405 87.455 106.858C87.1727 107.395 86.2886 107.622 85.6766 107.987C85.3205 108.09 84.9866 108.18 84.6528 108.269ZM105.457 107.374C104.396 105.189 110.282 103.912 106.373 101.514C104.38 100.292 103.463 100.721 102.268 102.677C99.7502 106.773 105.465 104.921 105.457 107.374ZM84.6181 94.8069C86.6663 93.9244 88.2952 99.9524 90.7446 94.5228C92.6871 90.2021 88.3127 91.8818 87.6182 90.0444C87.1284 92.0385 85.6839 93.0787 84.6181 94.8069ZM119.213 85.6393C114.257 83.3281 114.359 83.4182 113.521 84.4647C110.622 88.1087 114.278 88.4926 116.086 90.4357C116.571 88.2164 118.011 87.0346 119.213 85.6393ZM98.3647 72.7059C97.5174 74.6359 96.7311 76.2558 95.4025 77.8107C97.4292 77.3872 98.1464 81.9044 101.044 78.2185C104.623 73.6541 98.2707 75.1483 98.3647 72.7059ZM100.241 88.7146C99.6699 89.7986 97.9895 90.8347 100.282 91.6413C101.442 92.0534 102.29 93.623 103.513 91.2822C104.348 89.6914 104.642 89.0505 102.91 88.1531C101.61 87.4761 100.798 86.8032 100.241 88.7146Z" fill="#FFE8C8"/>
<path d="M110.155 68.3126C110.092 68.0105 110.038 67.7142 109.975 67.4121C110.097 67.1529 110.295 66.8985 110.341 66.6346C110.863 63.1885 112.434 60.5871 116.101 60.0619C119.084 59.6353 121.311 60.9717 122.285 63.7837C123.485 67.2322 121.84 69.8029 118.982 71.8326C118.764 71.9916 118.613 72.2752 118.433 72.4994C118.115 72.5843 117.791 72.6792 117.473 72.764C114.374 72.315 111.945 70.8144 110.155 68.3126Z" fill="#FFE8C8"/>
<path d="M119.466 107.117C119.39 106.751 119.313 106.385 119.227 106.014C119.764 102.883 121.343 100.397 123.918 98.5015C124.284 98.404 124.643 98.3164 124.999 98.213C125.935 98.4334 126.889 98.5816 127.787 98.9042C130.329 99.8207 131.912 101.572 131.896 104.463C131.877 107.104 130.613 109.128 128.24 110.34C125.638 111.664 123.322 111.065 121.346 109.242C120.646 108.623 120.088 107.84 119.466 107.117Z" fill="#FFE8C8"/>
<path d="M93.4336 111.649C93.53 112.11 93.6168 112.566 93.7195 113.017C93.5086 113.694 93.2914 114.381 93.0709 115.053C92.1459 117.935 90.3719 119.927 87.2953 120.186C84.4734 120.418 82.3969 119.118 81.3959 116.498C80.3132 113.648 81.3727 111.208 83.6211 109.156C84.1492 108.671 84.6965 108.198 85.2246 107.713C85.5585 107.624 85.8986 107.525 86.2325 107.435C89.2509 107.822 91.6158 109.298 93.4336 111.649Z" fill="#FFE8C8"/>
<path d="M79.6791 81.743C79.377 81.8236 79.0812 81.8941 78.7791 81.9747C75.3271 81.2004 71.9283 80.3196 71.8161 75.809C71.7457 73.1841 72.9933 71.1224 75.3828 69.9058C79.467 67.8426 81.8882 70.3103 84.2059 72.9651C84.2956 73.3944 84.3854 73.8236 84.4814 74.2428C83.8292 77.3458 82.1708 79.811 79.6791 81.743Z" fill="#FFE8C8"/>
<path d="M120.936 123.697C119.265 126.501 115.322 127.553 112.71 125.9C110.233 124.328 109.452 120.634 111.051 117.967C112.729 115.152 116.656 114.105 119.277 115.764C121.739 117.339 122.519 121.033 120.936 123.697Z" fill="#FFE8C8"/>
<path d="M64.8844 96.4302C62.2511 94.8751 61.4619 90.9397 63.2524 88.2632C64.9578 85.7016 68.6213 84.7578 71.1296 86.2371C73.7628 87.7922 74.552 91.7275 72.7616 94.4041C71.0658 96.9714 67.3927 97.9095 64.8844 96.4302Z" fill="#FFE8C8"/>
<path d="M76.0596 107.005C74.4551 109.808 70.5411 110.919 67.9075 109.322C65.418 107.813 64.5928 104.147 66.1156 101.475C67.7201 98.6717 71.6341 97.5603 74.2677 99.1573C76.7668 100.673 77.5983 104.328 76.0596 107.005Z" fill="#FFE8C8"/>
<path d="M132.195 93.7859C129.649 92.0062 129.124 88.0089 131.097 85.4432C133.004 82.9623 136.733 82.2527 139.103 83.9116C141.648 85.6914 142.167 89.6987 140.201 92.2544C138.303 94.7411 134.574 95.4507 132.195 93.7859Z" fill="#FFE8C8"/>
<path d="M90.6763 54.1756C93.1997 55.5669 94.1647 59.1784 92.7318 61.9189C91.2519 64.756 87.3776 66.0162 84.6749 64.5301C82.001 63.0614 81.1101 59.1617 82.8362 56.4184C84.4743 53.8161 88.1241 52.7669 90.6763 54.1756Z" fill="#FFE8C8"/>
<path d="M137.429 78.9183C135.69 81.6817 131.737 82.6441 129.195 80.9221C126.761 79.2802 126.073 75.5865 127.724 72.9641C129.462 70.2007 133.416 69.2383 135.958 70.9603C138.391 72.6022 139.073 76.306 137.429 78.9183Z" fill="#FFE8C8"/>
<path d="M103.779 51.2135C106.397 52.8147 107.129 56.757 105.3 59.4103C103.55 61.9586 99.8667 62.849 97.3994 61.3251C94.7816 59.7239 94.0497 55.7816 95.869 53.1224C97.6225 50.59 101.312 49.6896 103.779 51.2135Z" fill="#FFE8C8"/>
<path d="M107.981 126.802C106.291 129.595 102.357 130.611 99.7672 128.944C97.3026 127.352 96.5569 123.665 98.1692 121.019C99.8598 118.227 103.784 117.205 106.377 118.888C108.841 120.48 109.584 124.151 107.981 126.802Z" fill="#FFE8C8"/>
<path d="M69.8451 114.128C72.0376 111.486 74.557 110.89 77.3066 112.599C79.9312 114.232 80.3919 117.76 78.3199 120.336C76.1469 123.031 73.5048 123.442 70.891 121.579C68.2257 119.671 68.1487 117.015 69.8451 114.128Z" fill="#FFE8C8"/>
<path d="M125.924 122.504C123.332 120.585 122.664 118.112 124.353 115.11C125.963 112.256 129.499 111.346 132.026 113.156C134.661 115.045 135.175 117.703 133.307 120.568C131.435 123.458 128.814 123.923 125.924 122.504Z" fill="#FFE8C8"/>
<path d="M69.4488 81.0882C67.4389 83.8403 64.9383 84.7677 62.0996 83.0741C59.2898 81.3981 58.6869 78.7555 60.4846 75.7914C62.2856 72.8433 64.9345 72.103 67.7632 73.7488C70.6145 75.4222 70.9844 78.0346 69.4488 81.0882Z" fill="#FFE8C8"/>
<path d="M94.7383 129.694C92.7568 132.422 90.2374 133.379 87.3931 131.779C84.5839 130.187 83.9366 127.573 85.5136 124.517C87.0185 121.597 90.5415 120.582 93.1318 122.291C95.8503 124.093 96.2642 126.634 94.7383 129.694Z" fill="#FFE8C8"/>
<path d="M135.69 106.476C133.12 104.501 132.506 102.005 134.243 99.0323C135.901 96.2066 139.456 95.3504 141.945 97.2206C144.544 99.1707 145 101.835 143.099 104.667C141.164 107.532 138.535 107.923 135.69 106.476Z" fill="#FFE8C8"/>
<path d="M77.8816 57.8531C80.4102 59.8723 81.0026 62.4247 79.0674 65.2907C77.1259 68.1667 74.4252 68.7362 71.7106 66.9514C68.9671 65.149 68.5614 62.4461 70.4711 59.5785C72.406 56.6706 75.029 56.3317 77.8816 57.8531Z" fill="#FFE8C8"/>
<path d="M118.089 55.8297C115.873 58.7207 113.331 59.567 110.546 57.8088C107.77 56.0564 107.25 53.3666 109.124 50.4492C110.999 47.5317 113.69 46.8725 116.475 48.5889C119.307 50.3343 119.509 52.9833 118.089 55.8297Z" fill="#FFE8C8"/>
<path d="M133.977 65.8218C131.925 68.5347 129.445 69.3221 126.595 67.7325C123.869 66.2186 123.214 62.7254 125.177 60.0697C127.209 57.3033 129.843 56.6929 132.552 58.4463C135.289 60.2173 135.561 62.8392 133.977 65.8218Z" fill="#FFE8C8"/>
<path d="M55.6079 111.699C53.3396 109.921 52.5483 107.581 54.1 104.969C55.655 102.372 58.2362 101.633 60.7149 103.053C63.2032 104.478 63.7863 107.066 62.2472 109.659C60.7147 112.283 58.236 112.709 55.6079 111.699Z" fill="#FFE8C8"/>
<path d="M74.6136 134.433C72.3901 132.668 71.5892 130.322 73.1472 127.7C74.7085 125.093 77.3152 124.356 79.8001 125.765C82.298 127.197 82.8844 129.801 81.3486 132.409C79.7973 135.064 77.3123 135.5 74.6136 134.433Z" fill="#FFE8C8"/>
<path d="M144.791 110.546C146.74 112.241 147.374 114.514 145.906 117.163C144.569 119.559 140.857 120.432 138.88 118.803C136.701 117.009 136.272 114.598 137.846 112.013C139.178 109.794 142.551 109.104 144.791 110.546Z" fill="#FFE8C8"/>
<path d="M65.9805 67.9556C63.9325 70.3655 61.5552 71.2012 59.1479 69.6442C56.7597 68.0989 56.2593 65.5044 57.9143 62.9812C59.563 60.468 62.1587 59.8342 64.569 61.3652C66.9986 62.9078 67.1348 65.4065 65.9805 67.9556Z" fill="#FFE8C8"/>
<path d="M129.044 45.7787C131.264 47.5275 132.055 49.8674 130.484 52.4682C128.929 55.0648 126.338 55.798 123.866 54.3682C121.384 52.9326 120.81 50.3501 122.349 47.7577C123.901 45.1452 126.37 44.713 129.044 45.7787Z" fill="#FFE8C8"/>
<path d="M101.643 45.7746C99.8083 48.1192 97.4733 49.036 94.9842 47.61C92.511 46.1798 91.9247 43.6166 93.4581 41.0335C94.9977 38.4404 97.5734 37.7112 100.043 39.1256C102.539 40.5415 102.844 43.0034 101.643 45.7746Z" fill="#FFE8C8"/>
<path d="M110.233 139.408C108.238 141.711 105.842 142.577 103.416 141.008C101.008 139.451 100.501 136.825 102.169 134.282C103.84 131.754 106.464 131.096 108.887 132.649C111.326 134.197 111.533 136.711 110.233 139.408Z" fill="#FFE8C8"/>
<path d="M148.124 68.502C150.347 70.2668 151.148 72.6124 149.59 75.235C148.029 77.8417 145.422 78.5791 142.934 77.1536C140.436 75.7222 139.856 73.1078 141.401 70.5054C142.94 67.8712 145.425 67.4347 148.124 68.502Z" fill="#FFE8C8"/>
<path d="M57.7432 90.0994C60.0191 92.0347 60.715 94.4 59.0447 96.9266C57.3966 99.439 54.8051 100.088 52.3956 98.5579C50.002 97.0232 49.5113 94.4354 51.1465 91.9014C52.8102 89.3429 55.2774 89.0623 57.7432 90.0994Z" fill="#FFE8C8"/>
<path d="M145.927 90.135C143.704 88.3703 142.909 86.0146 144.477 83.3978C146.038 80.7912 148.645 80.0537 151.143 81.4851C153.641 82.9165 154.211 85.525 152.675 88.1332C151.105 90.7759 148.61 91.2066 145.927 90.135Z" fill="#FFE8C8"/>
<path d="M88.7702 48.7925C86.8878 51.1917 84.5465 52.1186 82.0637 50.6825C79.5906 49.2523 79.0106 46.6791 80.5439 44.096C82.0835 41.5028 84.6529 40.7837 87.1291 42.188C89.6437 43.6156 89.9105 46.0961 88.7702 48.7925Z" fill="#FFE8C8"/>
<path d="M123.155 136.35C121.195 138.619 118.903 139.381 116.376 138.015C114.08 136.79 113.436 133.067 115.161 130.961C117.064 128.657 119.557 127.976 121.917 129.587C124.261 131.203 124.461 133.684 123.155 136.35Z" fill="#FFE8C8"/>
<path d="M154.217 94.8256C156.446 96.5385 156.892 98.7105 155.211 101.148C153.502 103.61 151.201 103.963 148.931 102.379C146.799 100.891 146.478 98.7114 147.965 96.3929C149.572 93.883 151.771 93.5229 154.217 94.8256Z" fill="#FFE8C8"/>
<path d="M129.598 134.693C127.25 132.936 126.697 130.81 128.288 128.346C129.879 125.883 132.121 125.326 134.467 126.79C136.822 128.26 137.223 130.502 135.677 132.979C134.083 135.511 131.883 135.787 129.598 134.693Z" fill="#FFE8C8"/>
<path d="M49.4401 85.3026C47.2615 83.5929 46.8287 81.4426 48.5161 79.0372C50.2224 76.6016 52.4949 76.2722 54.7392 77.8552C56.8554 79.3465 57.1384 81.5032 55.6507 83.7798C54.0343 86.2838 51.8605 86.6036 49.4401 85.3026Z" fill="#FFE8C8"/>
<path d="M144.845 56.0381C147.09 57.663 147.659 59.7852 146.04 62.2734C144.404 64.7657 142.158 65.2223 139.828 63.7124C137.652 62.2957 137.248 60.1629 138.662 57.8137C140.201 55.263 142.361 54.7958 144.845 56.0381Z" fill="#FFE8C8"/>
<path d="M69.4995 53.5646C67.0951 51.8984 66.4493 49.8133 68.0211 47.2961C69.5961 44.7947 71.8062 44.247 74.1708 45.7225C76.3687 47.0829 76.8233 49.177 75.4734 51.5512C74.0011 54.1426 71.8539 54.5896 69.4995 53.5646Z" fill="#FFE8C8"/>
<path d="M97.0161 142.189C95.0773 144.679 92.8922 145.228 90.5963 143.641C88.262 142.032 88.0602 139.702 89.7609 137.317C91.364 135.068 93.5376 134.665 95.7392 136.041C98.159 137.578 98.2705 139.798 97.0161 142.189Z" fill="#FFE8C8"/>
<path d="M58.9336 124.233C56.5444 122.479 56.0129 120.338 57.6615 117.868C59.3163 115.387 61.5689 114.962 63.886 116.492C66.0495 117.929 66.412 120.065 64.9886 122.408C63.4239 124.999 61.2405 125.313 58.9336 124.233Z" fill="#FFE8C8"/>
<path d="M114.05 42.6973C112.24 45.0015 110.09 45.5583 107.804 43.9776C105.489 42.3794 105.287 40.0913 106.976 37.7272C108.566 35.4983 110.714 35.0931 112.884 36.4782C115.272 37.9815 115.469 40.17 114.05 42.6973Z" fill="#FFE8C8"/>
<path d="M142.642 131.127C140.779 129.4 140.23 127.373 141.757 125.329C143.238 123.34 145.439 122.87 147.377 124.35C149.112 125.666 149.451 127.732 148.146 129.675C146.717 131.793 144.66 131.989 142.642 131.127Z" fill="#FFE8C8"/>
<path d="M46.8221 72.0189C44.9647 70.6012 44.4094 68.6682 45.8092 66.5325C47.0799 64.5822 49.0926 64.0536 50.9922 65.1916C53.0552 66.4286 53.4843 68.5212 52.0942 70.6627C50.8201 72.597 48.9047 72.9486 46.8221 72.0189Z" fill="#FFE8C8"/>
<path d="M141.388 43.5231C143.123 44.7554 143.839 46.5362 142.777 48.6406C141.605 50.9421 139.505 51.6535 137.382 50.5331C135.241 49.401 134.766 47.2534 136.089 45.0711C137.305 43.06 139.236 42.6623 141.388 43.5231Z" fill="#FFE8C8"/>
<path d="M158.172 113.529C156.678 115.497 154.715 116.306 152.632 115.099C150.56 113.898 150.124 111.731 151.434 109.569C152.647 107.583 154.708 107 156.645 107.994C158.79 109.1 159.111 111.155 158.172 113.529Z" fill="#FFE8C8"/>
<path d="M60.8211 49.1197C62.5429 50.3303 63.2527 52.0794 62.1967 54.1737C61.0373 56.4551 58.9624 57.1681 56.8494 56.0535C54.7332 54.923 54.2434 52.8215 55.5663 50.6391C56.7856 48.6439 58.6815 48.2388 60.8211 49.1197Z" fill="#FFE8C8"/>
<path d="M67.7283 135.101C66.2373 137.043 64.2773 137.827 62.2331 136.601C60.1984 135.381 59.7688 133.246 61.102 131.111C62.3282 129.147 64.3699 128.594 66.2848 129.602C68.3982 130.717 68.7217 132.746 67.7283 135.101Z" fill="#FFE8C8"/>
<path d="M126.675 39.1412C125.324 40.9875 123.494 41.7525 121.506 40.7553C119.329 39.6574 118.753 37.5449 120.032 35.3489C121.307 33.1369 123.463 32.5701 125.533 33.8391C127.414 35.0076 127.67 36.9537 126.675 39.1412Z" fill="#FFE8C8"/>
<path d="M78.1491 146.484C76.3199 145 75.707 143.032 77.0941 140.916C78.4687 138.821 80.6314 138.328 82.6248 139.634C84.4356 140.829 84.8547 142.874 83.6735 144.85C82.3762 147.034 80.3558 147.405 78.1491 146.484Z" fill="#FFE8C8"/>
<path d="M120.152 149.765C118.321 148.433 117.924 146.693 119.305 144.671C120.558 142.835 122.298 142.446 124.073 143.55C126.05 144.777 126.333 146.614 124.974 148.622C123.728 150.49 122.034 150.74 120.152 149.765Z" fill="#FFE8C8"/>
<path d="M160.064 66.4873C162.09 67.8685 162.608 69.5429 161.287 71.6156C160.098 73.4768 158.404 73.9624 156.591 72.9187C154.599 71.7803 154.211 70.004 155.484 67.9441C156.682 66.0469 158.35 65.795 160.064 66.4873Z" fill="#FFE8C8"/>
<path d="M111.229 146.627C112.935 147.884 113.408 149.503 112.249 151.424C110.989 153.506 109.189 154.011 107.222 152.79C105.437 151.68 105.072 149.974 106.206 148.051C107.469 145.944 109.231 145.583 111.229 146.627Z" fill="#FFE8C8"/>
<path d="M163.174 79.3895C165.2 80.7707 165.722 82.4611 164.395 84.5438C163.2 86.415 161.499 86.9107 159.667 85.8554C157.666 84.7111 157.265 82.9132 158.56 80.839C159.748 78.9359 161.428 78.6638 163.174 79.3895Z" fill="#FFE8C8"/>
<path d="M97.3291 32.295C95.999 34.0432 94.3686 34.5957 92.5677 33.4898C90.5841 32.2731 90.3131 30.4149 91.7083 28.4563C92.9837 26.6472 94.7439 26.3539 96.4815 27.5186C98.2384 28.695 98.3804 30.3778 97.3291 32.295Z" fill="#FFE8C8"/>
<path d="M44.2291 94.4619C45.8814 95.7414 46.3066 97.3735 45.0832 99.2692C43.7308 101.35 41.8726 101.695 40.0063 100.355C38.2812 99.1286 38.1256 97.3407 39.3974 95.5161C40.7073 93.6728 42.3912 93.4585 44.2291 94.4619Z" fill="#FFE8C8"/>
<path d="M158.168 58.4572C156.968 60.0618 155.392 60.7171 153.721 59.8285C151.86 58.8392 151.452 57.0091 152.648 55.1374C153.723 53.457 155.457 53.0365 157.094 54.0014C158.744 54.9881 158.921 56.6364 158.168 58.4572Z" fill="#FFE8C8"/>
<path d="M110.105 29.0532C108.843 30.5651 107.264 31.2045 105.652 30.2411C103.877 29.1786 103.508 27.3299 104.77 25.5408C105.892 23.9574 107.635 23.5427 109.215 24.5983C110.786 25.6481 110.918 27.2833 110.105 29.0532Z" fill="#FFE8C8"/>
<path d="M47.1917 107.303C48.8975 108.518 49.4118 110.134 48.2461 112.065C46.9735 114.167 45.1386 114.623 43.2091 113.342C41.4366 112.17 41.1952 110.413 42.4094 108.553C43.6423 106.664 45.3097 106.37 47.1917 107.303Z" fill="#FFE8C8"/>
<path d="M133.19 146.527C131.627 145.233 131.128 143.57 132.406 141.735C133.543 140.106 135.257 139.674 136.858 140.673C138.627 141.787 138.971 143.592 137.718 145.428C136.579 147.083 134.94 147.311 133.19 146.527Z" fill="#FFE8C8"/>
<path d="M40.7198 81.5405C42.3142 82.7849 42.882 84.3368 41.9057 86.0489C40.8259 87.948 38.9853 88.4559 37.2423 87.3434C35.6755 86.3517 35.3706 84.6123 36.4108 82.9251C37.4761 81.1976 39.1256 81.0596 40.7198 81.5405Z" fill="#FFE8C8"/>
<path d="M79.7005 36.6888C77.8879 35.2843 77.4247 33.6708 78.6258 31.7896C79.9464 29.717 81.7916 29.3506 83.6607 30.6645C85.3728 31.8692 85.5569 33.6326 84.3107 35.4588C83.0393 37.3252 81.3513 37.4399 79.7005 36.6888Z" fill="#FFE8C8"/>
<path d="M162.552 98.4395C161.123 97.0588 160.662 95.3776 162.033 93.6272C163.224 92.101 164.964 91.7124 166.494 92.8064C168.155 94.0079 168.435 95.8296 167.096 97.5715C165.895 99.1337 164.249 99.3294 162.552 98.4395Z" fill="#FFE8C8"/>
<path d="M51.0634 125.122C49.7437 126.599 48.1676 127.17 46.546 126.159C44.934 125.154 44.5494 123.435 45.5963 121.737C46.7626 119.848 48.6075 119.398 50.3264 120.593C51.8655 121.651 51.9757 123.343 51.0634 125.122Z" fill="#FFE8C8"/>
<path d="M97.9853 149.727C99.6831 151.146 100.21 152.784 98.9738 154.616C97.8692 156.236 96.1587 156.684 94.5602 155.701C92.7983 154.619 92.4579 152.83 93.6593 150.991C94.7572 149.338 96.4132 149.232 97.9853 149.727Z" fill="#FFE8C8"/>
<path d="M71.31 38.3451C69.968 39.8363 68.3697 40.4222 66.7761 39.3449C65.2051 38.2951 64.8808 36.5433 66.0013 34.8762C67.1251 33.2249 68.865 32.7943 70.4615 33.8457C72.0422 34.9013 72.1649 36.5725 71.31 38.3451Z" fill="#FFE8C8"/>
<path d="M160.305 125.936C159.104 127.498 157.689 127.96 156.202 127.03C154.715 126.101 154.406 124.58 155.406 123.021C156.406 121.461 157.92 121.074 159.413 121.993C160.916 122.919 161.056 124.392 160.305 125.936Z" fill="#FFE8C8"/>
<path d="M85.7252 156.904C84.7306 158.37 83.5747 158.863 82.2881 158.249C80.8159 157.551 80.3807 156.232 81.2632 154.712C82.1395 153.203 83.4914 152.884 84.8822 153.755C86.1288 154.539 86.1425 155.769 85.7252 156.904Z" fill="#FFE8C8"/>
<path d="M64.9912 144.651C66.3128 143.023 67.738 142.693 69.1559 143.733C70.6026 144.791 70.6732 146.333 69.551 147.791C68.5549 149.089 67.1674 149.359 65.8276 148.491C64.3146 147.518 64.2673 146.087 64.9912 144.651Z" fill="#FFE8C8"/>
<path d="M53.5593 137.499C52.5377 138.795 51.2951 139.236 49.9389 138.33C48.775 137.541 48.5282 136.281 49.3143 135.022C50.2136 133.582 51.5623 133.247 52.9055 134.131C54.0916 134.906 54.1882 136.131 53.5593 137.499Z" fill="#FFE8C8"/>
<path d="M122.345 25.5825C121.395 26.7423 120.217 27.2079 118.99 26.4776C117.589 25.6425 117.329 24.2347 118.349 22.8544C119.219 21.6739 120.527 21.3838 121.717 22.2163C122.884 23.0213 122.987 24.2361 122.345 25.5825Z" fill="#FFE8C8"/>
<path d="M138.59 35.5556C137.291 37.2115 135.858 37.4258 134.443 36.3597C133.166 35.391 133.039 33.9812 134.019 32.6036C135.152 31.0002 136.64 30.8468 138.055 31.913C139.354 32.8673 139.346 34.2374 138.59 35.5556Z" fill="#FFE8C8"/>
<path d="M154.443 45.1826C153.212 46.6023 151.912 46.9661 150.641 45.9872C149.559 45.151 149.338 43.8503 150.217 42.6337C151.203 41.2459 152.568 40.9907 153.851 41.9494C154.974 42.783 154.944 44.0419 154.443 45.1826Z" fill="#FFE8C8"/>
<path d="M57.7957 40.946C56.8655 42.1175 55.6806 42.5931 54.4568 41.8788C53.0441 41.0638 52.7771 39.6662 53.7754 38.2583C54.6321 37.0561 55.9333 36.7761 57.1323 37.5726C58.3187 38.3892 58.4216 39.6039 57.7957 40.946Z" fill="#FFE8C8"/>
<path d="M169.947 109.596C168.844 111.149 167.624 111.575 166.221 110.724C165 109.984 164.684 108.792 165.374 107.475C166.145 105.985 167.412 105.462 168.885 106.202C170.361 106.959 170.48 108.253 169.947 109.596Z" fill="#FFE8C8"/>
<path d="M48.1617 57.0825C47.1035 58.5651 45.746 58.9776 44.2457 57.9846C42.9122 57.1066 42.6681 55.7784 43.5514 54.3426C44.5542 52.7153 45.9697 52.3797 47.4762 53.3626C48.8256 54.2364 48.9803 55.538 48.1617 57.0825Z" fill="#FFE8C8"/>
<path d="M38.0862 72.9934C37.1238 74.1315 35.9356 74.5912 34.7274 73.8308C33.3461 72.9655 33.1013 71.5535 34.1414 70.1849C35.0239 69.0261 36.3507 68.7477 37.5182 69.5945C38.6666 70.4296 38.7728 71.6603 38.0862 72.9934Z" fill="#FFE8C8"/>
<path d="M150.152 141.758C149.179 143.126 147.953 143.562 146.549 142.711C145.329 141.971 145.012 140.779 145.702 139.462C146.473 137.972 147.747 137.439 149.213 138.19C150.654 138.938 150.895 140.209 150.152 141.758Z" fill="#FFE8C8"/>
</svg>
