<svg width="51" height="51" viewBox="0 0 51 51" fill="none" xmlns="http://www.w3.org/2000/svg">
<path d="M20.3606 49.2762C17.6214 51.1139 14.8128 51.4722 12.0736 49.3571C9.35751 47.2651 9.10323 44.3988 10.155 40.8852C6.59518 41.6596 3.39367 41.6364 1.29014 38.4696C-0.512886 35.7535 -0.0737046 33.0952 1.70621 30.5293C1.92581 30.3097 2.14541 30.1017 2.36501 29.8821C3.63638 28.969 5.11579 28.0791 6.59519 28.3796C9.29973 28.9228 8.80272 27.6746 8.95297 25.7675C9.14946 23.1323 8.87207 22.0574 5.92482 22.4851C4.84994 22.6353 3.61325 21.6876 2.45746 21.2368C2.1454 20.9248 1.83334 20.6127 1.52128 20.3122C-0.0390353 17.6886 -0.524471 15.0187 1.37102 12.372C3.47455 9.43626 6.44494 9.18199 10.0972 10.1528C9.1726 6.55835 9.31127 3.40305 12.4666 1.31107C15.1711 -0.468838 17.8294 -0.0296448 20.3721 1.73871C20.5917 1.95831 20.7998 2.17792 21.0194 2.39751C21.5395 3.68044 22.6606 5.05583 22.4641 6.21161C21.944 9.33224 23.4234 8.7659 25.5848 8.93927C28.1853 9.14731 28.4049 8.44227 28.3355 6.22316C28.2893 4.96336 29.2833 3.68044 29.8034 2.39751C30.0345 2.16636 30.2657 1.92364 30.4968 1.69248C33.2245 -0.226121 36.0331 -0.54974 38.7723 1.53067C41.4999 3.61109 41.8235 6.45432 40.7718 9.9448C44.2391 9.34379 47.4753 9.19353 49.602 12.3951C51.405 15.1112 50.9889 17.7695 49.2784 20.3584C49.0125 20.6243 48.7467 20.8785 48.4924 21.1444C47.198 21.6529 45.8457 22.6931 44.6205 22.5544C41.9738 22.2539 42.0085 23.1901 42.0431 25.4323C42.0778 27.6052 41.9507 28.6454 44.6321 28.3449C45.8573 28.2062 47.2095 29.258 48.4924 29.7665C48.7583 30.0324 49.0241 30.2982 49.3015 30.564C51.1276 33.2917 51.4859 36.1003 49.394 38.8163C47.3135 41.5093 44.5165 41.937 40.9914 40.7812C41.708 44.4103 41.5924 47.7159 38.2406 49.7963C35.6632 51.3913 33.1205 50.9521 30.6702 49.3918C30.335 49.0566 30.0114 48.7214 29.6762 48.3978C28.3818 46.4792 28.0466 44.341 28.4049 42.1103C24.7179 41.6942 21.6551 41.7983 22.0365 46.6872C22.0827 47.2767 21.4355 47.9124 21.1003 48.5249C20.846 48.7908 20.6033 49.0335 20.3606 49.2762ZM38.021 38.0304C35.9059 36.7475 40.3441 32.7138 35.6285 32.6907C33.2245 32.6791 32.6581 33.4997 32.6813 35.7304C32.7159 40.4113 36.6919 35.9846 38.021 38.0304ZM12.9982 38.0882C14.3043 36.3198 19.0083 40.5153 18.1877 34.7595C17.5289 30.1826 14.6279 33.7887 13.0214 32.6098C13.6802 34.5168 12.9867 36.1118 12.9982 38.0882ZM38.1828 12.9961C32.6004 13.574 32.7391 13.5971 32.5772 14.8916C32.034 19.3876 35.432 17.8619 38.0672 18.567C37.2813 16.475 37.8939 14.7644 38.1828 12.9961ZM12.952 12.7534C13.2641 14.7875 13.4605 16.5328 13.1485 18.4976C14.6857 17.1222 17.7716 20.5203 18.2917 15.9896C18.9274 10.384 14.2003 14.8338 12.952 12.7534ZM23.3078 25.1318C23.4003 26.3223 22.4988 28.0329 24.9375 27.5474C26.1742 27.3047 27.7692 28.1831 27.5611 25.6173C27.4224 23.872 27.33 23.1901 25.3305 23.3172C23.828 23.4097 22.7531 23.2595 23.3078 25.1318Z" fill="#FFE8C8"/>
</svg>
