<svg width="88" height="102" viewBox="0 0 88 102" fill="none" xmlns="http://www.w3.org/2000/svg">
<path d="M52.8 92.8996C52.8 88.2586 49.5103 84.4829 45.4667 84.4829C41.4231 84.4829 38.1334 88.2586 38.1334 92.8996C38.1334 97.5405 41.4231 101.316 45.4667 101.316C49.5103 101.316 52.8 97.5405 52.8 92.8996ZM41.0667 92.8996C41.0667 90.1153 43.0408 87.8496 45.4667 87.8496C47.8926 87.8496 49.8667 90.1153 49.8667 92.8996C49.8667 95.6838 47.8926 97.9496 45.4667 97.9496C43.0408 97.9496 41.0667 95.6838 41.0667 92.8996Z" fill="#23374E"/>
<path d="M82.1333 92.8996C82.1333 88.2586 78.8436 84.4829 74.8 84.4829C70.7564 84.4829 67.4667 88.2586 67.4667 92.8996C67.4667 97.5405 70.7564 101.316 74.8 101.316C78.8436 101.316 82.1333 97.5405 82.1333 92.8996ZM70.4 92.8996C70.4 90.1153 72.3741 87.8496 74.8 87.8496C77.2259 87.8496 79.2 90.1153 79.2 92.8996C79.2 95.6838 77.2259 97.9496 74.8 97.9496C72.3741 97.9496 70.4 95.6838 70.4 92.8996Z" fill="#23374E"/>
<path d="M86.5333 3.68307H80.6667H68.6283C55.0645 3.68307 43.3693 13.0087 38.1333 26.3626V1.99974C38.1333 1.07054 37.4777 0.316406 36.6667 0.316406H30.8C29.9889 0.316406 29.3333 1.07054 29.3333 1.99974V3.68307H22H16.1333H7.33333C6.52227 3.68307 5.86667 4.43721 5.86667 5.36641V28.9331V50.8164H1.46667C0.6556 50.8164 0 51.5705 0 52.4997V59.2331C0 60.1623 0.6556 60.9164 1.46667 60.9164H29.3333V86.1664C29.3333 87.0956 29.9889 87.8497 30.8 87.8497H36.6667C37.4777 87.8497 38.1333 87.0956 38.1333 86.1664V84.7086C40.0679 82.4176 42.7108 81.1164 45.4667 81.1164C49.1099 81.1164 52.514 83.3754 54.3488 87.0098C54.6099 87.5299 55.0939 87.8497 55.6175 87.8497H64.6492C65.1713 87.8497 65.6568 87.5299 65.9179 87.0098C67.7527 83.3754 71.1568 81.1164 74.8 81.1164C78.4432 81.1164 81.8473 83.3754 83.6821 87.0098C83.9432 87.5299 84.4272 87.8497 84.9508 87.8497H86.5333C87.3444 87.8497 88 87.0956 88 86.1664V69.3331V62.5997V5.36641C88 4.43721 87.3444 3.68307 86.5333 3.68307ZM85.0667 7.04974V52.4997C85.0051 52.4055 84.9259 52.323 84.8628 52.2304C84.5577 51.7843 84.2351 51.3551 83.8919 50.946C83.7775 50.8097 83.6631 50.6733 83.5443 50.5403C83.1659 50.1178 82.7655 49.7256 82.3504 49.3519C82.2741 49.2846 82.2111 49.2021 82.1333 49.1364V7.04974H85.0667ZM85.0667 67.6497H61.6V62.5997C61.6 62.1856 61.622 61.7766 61.6543 61.3709C61.6733 61.1437 61.7027 60.9164 61.732 60.6908C61.7511 60.5343 61.7701 60.3777 61.7951 60.2229C61.8435 59.9216 61.9007 59.6202 61.9667 59.3206C61.9799 59.26 61.9931 59.2011 62.0063 59.1422C62.0855 58.8038 62.1749 58.4672 62.2776 58.1322C62.2835 58.1137 62.2893 58.0935 62.2952 58.0749C62.4155 57.6911 62.5489 57.3158 62.6971 56.9505C62.7147 56.9067 62.7337 56.8629 62.7528 56.8175C62.8907 56.4859 63.0388 56.1627 63.1972 55.8462C63.2397 55.7604 63.2867 55.6779 63.3307 55.5937C63.4729 55.3244 63.6225 55.0618 63.7809 54.8042C63.8528 54.6881 63.9291 54.5753 64.0039 54.4625C64.1505 54.242 64.3001 54.0232 64.4585 53.8127C64.5495 53.6915 64.6463 53.5737 64.7401 53.4559C64.9 53.2589 65.0628 53.0637 65.2329 52.8768C65.3268 52.7741 65.4251 52.6748 65.5219 52.5755C65.7125 52.3802 65.9047 52.1883 66.1071 52.0082C66.1848 51.9392 66.264 51.8735 66.3432 51.8062C66.5779 51.6059 66.8169 51.4123 67.0663 51.2322C67.1176 51.1952 67.1689 51.1598 67.2203 51.1245C67.5004 50.9292 67.7864 50.7423 68.0812 50.5723C69.6652 49.66 71.4443 49.1331 73.3333 49.1331C75.7577 49.1331 78.012 49.9815 79.8835 51.4325C80.2355 51.7052 80.5669 52.0015 80.8867 52.3112C81.0216 52.4408 81.1477 52.5805 81.2768 52.7186C81.466 52.9189 81.6508 53.1226 81.8268 53.3364C81.9603 53.498 82.0908 53.6612 82.2169 53.8296C82.3812 54.0484 82.5367 54.2757 82.6877 54.5063C82.7963 54.6696 82.9077 54.8295 83.0089 54.9995C83.2421 55.3883 83.4592 55.789 83.6543 56.2031C83.7085 56.3175 83.7511 56.4404 83.8024 56.5566C83.9476 56.8899 84.0869 57.2265 84.2087 57.5716C84.2659 57.7332 84.3143 57.8999 84.3656 58.0648C84.4653 58.383 84.5548 58.7045 84.6325 59.0294C84.6736 59.1994 84.7132 59.3694 84.7469 59.5411C84.8173 59.8896 84.8731 60.2414 84.92 60.5983C84.9405 60.7514 84.9655 60.9013 84.9816 61.0561C85.0344 61.5645 85.0667 62.0796 85.0667 62.5997V67.6497ZM38.7405 67.6497L46.3716 42.8374L48.5599 43.674C49.0556 45.8405 50.7599 47.4497 52.8 47.4497V55.8664C47.9468 55.8664 44 60.3963 44 65.9664V67.6497H38.7405ZM55.3813 40.7164H58.6667C59.4763 40.7164 60.1333 41.4722 60.1333 42.3997C60.1333 43.3273 59.4763 44.0831 58.6667 44.0831H54.2667H52.8C51.9904 44.0831 51.3333 43.3273 51.3333 42.3997C51.3333 41.4722 51.9904 40.7164 52.8 40.7164H55.3813ZM54.2667 27.2497C54.2667 23.5363 56.8979 20.5164 60.1333 20.5164C63.3688 20.5164 66 23.5363 66 27.2497C66 30.9632 63.3688 33.9831 60.1333 33.9831C56.8979 33.9831 54.2667 30.9632 54.2667 27.2497ZM66 48.0372C65.9736 48.0541 65.9531 48.0776 65.9267 48.0945C65.2828 48.5288 64.6639 49.0085 64.0889 49.5472C64.0831 49.5522 64.0772 49.5556 64.0728 49.5606C63.5316 50.0673 63.0329 50.6279 62.5607 51.217C62.4712 51.3281 62.3817 51.4376 62.2952 51.552C61.842 52.1479 61.4225 52.7758 61.0456 53.4407C61.0089 53.5047 60.9781 53.5703 60.9429 53.636C60.5513 54.348 60.1979 55.0887 59.9016 55.8664H55.7333V47.4497H58.6667C61.0925 47.4497 63.0667 45.184 63.0667 42.3997C63.0667 42.0749 63.0344 41.7584 62.9831 41.4503C62.9669 41.3493 62.9376 41.2551 62.9156 41.1558C62.8701 40.9521 62.8203 40.7518 62.7543 40.5582C62.7176 40.4504 62.6736 40.3478 62.6296 40.2434C62.5577 40.07 62.4785 39.9017 62.3905 39.7384C62.3363 39.6391 62.2805 39.5431 62.2219 39.4472C62.1221 39.2906 62.0151 39.1425 61.9007 39.0011C61.8361 38.9203 61.7745 38.8378 61.7056 38.7621C61.5677 38.6089 61.4181 38.4725 61.2627 38.3429C61.2055 38.2941 61.1527 38.2385 61.0925 38.1931C60.8725 38.0248 60.6393 37.8783 60.3944 37.7571C60.3489 37.7352 60.3005 37.7234 60.2536 37.7032C60.0805 37.6258 59.9075 37.5484 59.7241 37.4962C60.0952 37.4002 60.4765 37.3497 60.8667 37.3497C63.6973 37.3497 66 39.9926 66 43.2414V48.0372ZM46.9333 65.9664C46.9333 62.253 49.5645 59.2331 52.8 59.2331H54.2667H58.9629C58.7693 60.3205 58.6667 61.4467 58.6667 62.5997V67.6497H46.9333V65.9664ZM68.6283 7.04974H79.2V47.1821C77.4019 46.2765 75.4189 45.7664 73.3333 45.7664C71.8007 45.7664 70.3237 46.0408 68.9333 46.5424V43.2414C68.9333 39.9825 67.4549 37.1174 65.2315 35.4678C67.4681 33.6346 68.9333 30.6383 68.9333 27.2497C68.9333 21.6796 64.9865 17.1497 60.1333 17.1497C55.2801 17.1497 51.3333 21.6796 51.3333 27.2497C51.3333 31.0204 53.1447 34.308 55.8184 36.0435C55.3975 36.4323 55.0073 36.8649 54.6583 37.3497H52.8C51.0517 37.3497 49.5513 38.5348 48.8429 40.2333L41.5316 37.4356L40.6032 40.6289L43.5864 41.7702L38.1333 59.5041V42.0496C38.1333 22.7502 51.8129 7.04974 68.6283 7.04974ZM20.5333 7.04974V14.4261L19.7223 13.9615C19.5169 13.842 19.2911 13.7831 19.0667 13.7831C18.8423 13.7831 18.6164 13.842 18.4111 13.9598L17.6 14.4261V7.04974H20.5333ZM8.8 7.04974H14.6667V17.1497C14.6667 17.7339 14.9307 18.2742 15.3633 18.5823C15.7945 18.8886 16.3343 18.9139 16.7904 18.6563L19.0667 17.3484L21.3444 18.6546C21.5512 18.7742 21.7756 18.8331 22 18.8331C22.2684 18.8331 22.5353 18.7489 22.77 18.5823C23.2027 18.2742 23.4667 17.7339 23.4667 17.1497V7.04974H29.3333V27.2497H22H16.1333H8.8V7.04974ZM17.6 30.6164H20.5333V37.9928L19.7223 37.5282C19.5169 37.4087 19.2911 37.3497 19.0667 37.3497C18.8423 37.3497 18.6164 37.4087 18.4111 37.5265L17.6 37.9928V30.6164ZM8.8 30.6164H14.6667V40.7164C14.6667 41.3005 14.9307 41.8409 15.3633 42.1489C15.7945 42.4553 16.3343 42.4822 16.7904 42.223L19.0667 40.915L21.3444 42.2213C21.5512 42.3408 21.7756 42.3997 22 42.3997C22.2684 42.3997 22.5353 42.3156 22.77 42.1489C23.2027 41.8409 23.4667 41.3005 23.4667 40.7164V30.6164H29.3333V50.8164H8.8V30.6164ZM2.93333 57.5497V54.1831H7.33333H29.3333V57.5497H2.93333ZM74.8 77.7497C70.4015 77.7497 66.2757 80.3067 63.8367 84.4831H56.4285C53.9895 80.3067 49.8637 77.7497 45.4652 77.7497C41.6885 77.7497 38.0776 79.6435 35.5608 82.9428C35.3291 83.2509 35.2 83.6431 35.2 84.0521V84.4831H32.2667V59.2331V52.4997V28.9331V5.36641V3.68307H35.2V42.0496V69.3331C35.2 70.2623 35.8556 71.0164 36.6667 71.0164H45.4667H60.1333H85.0667V83.3973C82.5821 79.8674 78.8025 77.7497 74.8 77.7497Z" fill="#23374E"/>
</svg>
