<svg width="88" height="99" viewBox="0 0 88 99" fill="none" xmlns="http://www.w3.org/2000/svg">
<path d="M36.6666 54.4498C35.0459 56.3099 32.4206 56.3099 30.7999 54.4498C29.1793 52.5897 29.1793 49.5766 30.7999 47.7165L35.1999 42.6665L32.2666 39.2998H13.2V79.6998H16.8901C16.8666 79.5029 16.8564 79.3059 16.8608 79.1056C16.8608 79.0904 16.8622 79.0753 16.8637 79.0601C16.871 78.8783 16.8842 78.6965 16.9165 78.5147C16.9282 78.4457 16.9488 78.3784 16.9649 78.3094C16.9957 78.1764 17.0221 78.0451 17.0661 77.9155C17.135 77.7101 17.2201 77.5081 17.3257 77.3145L21.7462 69.2564C22.6614 67.5882 24.5828 67.0866 26.0362 68.137C27.4897 69.1874 27.9267 71.3926 27.0115 73.0607C27.9267 71.3926 29.8481 70.8909 31.3015 71.9413C32.755 72.9917 33.1921 75.1969 32.2769 76.8651C33.1921 75.1969 35.1134 74.6953 36.5669 75.7457C38.0203 76.7961 38.4574 79.0012 37.5422 80.6694C38.4574 79.0012 40.3787 78.4996 41.8322 79.55C42.6755 80.1594 43.1625 81.1576 43.2563 82.213L50.5999 90.6415L43.9999 83.0648L50.5999 90.6415C51.8143 92.0353 53.7855 92.0353 54.9999 90.6415C56.2143 89.2477 56.2143 86.9853 54.9999 85.5915L46.9333 76.3331L54.9999 85.5915C56.2143 86.9853 58.1855 86.9853 59.3999 85.5915C60.6143 84.1977 60.6143 81.9353 59.3999 80.5415L51.3333 71.2831L59.3999 80.5415C60.6143 81.9353 62.5855 81.9353 63.7999 80.5415C65.0143 79.1477 65.0143 76.8853 63.7999 75.4915L41.0666 49.3998L36.6666 54.4498Z" fill="#E4D9B3"/>
<path d="M13.2001 35.9331H1.4668V83.0664H13.2001V79.6998V39.2998V35.9331Z" fill="#B3D5E4"/>
<path d="M23.4238 78.4459L26.1518 73.4733C27.067 71.8051 26.6314 69.6 25.1765 68.5496C23.723 67.4992 21.8017 67.9991 20.8865 69.669L16.4659 77.7271C16.3603 77.9207 16.2767 78.1227 16.2063 78.328C16.1623 78.4577 16.1345 78.5906 16.1051 78.7219C16.089 78.791 16.0699 78.8583 16.0567 78.9273C16.0274 79.1074 16.0098 79.2909 16.0039 79.4727C16.0039 79.4879 16.001 79.503 16.001 79.5182C15.9966 79.7168 16.0069 79.9171 16.0303 80.1124C16.1521 81.1207 16.6317 82.065 17.4413 82.6508C18.8947 83.7012 20.8161 83.2013 21.7313 81.5314L26.1518 73.4733L23.4238 78.4459Z" fill="#E4D9B3"/>
<path d="M38.1334 39.2998L35.2001 42.6665L30.8001 47.7165C29.1794 49.5766 29.1794 52.5897 30.8001 54.4498C32.4208 56.3099 35.0461 56.3099 36.6668 54.4498L41.0668 49.3998L63.8001 75.4915L66.0001 78.0165L74.8001 79.6998V39.2998H38.1334Z" fill="#E4D9B3"/>
<path d="M41.8338 79.5515C40.3803 78.5011 38.459 79.0011 37.5438 80.6709L33.1232 88.729C32.208 90.3972 32.6436 92.6024 34.0986 93.6528C35.552 94.7032 37.4734 94.2032 38.3886 92.5334L42.8091 84.4753C43.1934 83.7733 43.3268 82.9788 43.2579 82.2145C43.164 81.1591 42.6756 80.1609 41.8338 79.5515Z" fill="#E4D9B3"/>
<path d="M36.567 75.7458C35.1136 74.6954 33.1922 75.1954 32.277 76.8653L27.8565 84.9234C26.9413 86.5916 27.3769 88.7967 28.8318 89.8471C30.2853 90.8975 32.2066 90.3976 33.1218 88.7277L37.5424 80.6696C38.4576 79.0014 38.022 76.7979 36.567 75.7458Z" fill="#E4D9B3"/>
<path d="M31.3016 71.9412C29.8482 70.8908 27.9269 71.3907 27.0117 73.0606L22.5911 81.1187C21.6759 82.7869 22.1115 84.992 23.5665 86.0424C25.0199 87.0928 26.9413 86.5929 27.8565 84.923L32.277 76.8649C33.1922 75.1967 32.7566 72.9916 31.3016 71.9412Z" fill="#E4D9B3"/>
<path d="M74.8 39.2998V79.6998V83.0664H86.5334V35.9331H74.8V39.2998Z" fill="#B3D5E4"/>
<path d="M86.5333 34.2495H74.8C73.9904 34.2495 73.3333 35.002 73.3333 35.9328V37.6162H38.1333C37.7447 37.6162 37.3707 37.7929 37.0964 38.1094L35.2 40.2859L33.3036 38.1094C33.0293 37.7929 32.6553 37.6162 32.2667 37.6162H14.6667V35.9328C14.6667 35.002 14.0096 34.2495 13.2 34.2495H1.46667C0.657067 34.2495 0 35.002 0 35.9328V83.0662C0 83.9971 0.657067 84.7495 1.46667 84.7495H13.2C14.0096 84.7495 14.6667 83.9971 14.6667 83.0662V81.3828H15.7872C16.1524 82.3154 16.7479 83.1049 17.5193 83.6621C18.2747 84.2075 19.1165 84.4684 19.9496 84.4684C20.24 84.4684 20.5245 84.4078 20.8076 84.3455C21.0921 85.5929 21.7609 86.7274 22.7832 87.4681C23.5385 88.0135 24.3804 88.2744 25.2149 88.2744C25.5039 88.2744 25.7884 88.2138 26.0715 88.1515C26.3663 89.4477 27.0571 90.5553 28.0485 91.2707C28.7877 91.806 29.6267 92.0821 30.4803 92.0821C30.7677 92.0821 31.0552 92.0333 31.3427 91.9693C31.6287 93.2116 32.296 94.3395 33.3153 95.0768C34.0707 95.6222 34.914 95.8831 35.7471 95.8831C37.2695 95.8831 38.7596 95.0128 39.6279 93.4305L40.6047 91.6495L45.1616 96.8796C46.0533 97.9031 47.2267 98.4148 48.3985 98.4148C49.5704 98.4148 50.7437 97.9031 51.6355 96.8796C52.4627 95.9319 52.9217 94.6812 52.9613 93.3463C54.0789 93.3008 55.1848 92.8059 56.0355 91.8296C56.8627 90.8819 57.3217 89.6312 57.3613 88.2963C58.4789 88.2508 59.5848 87.7559 60.4355 86.7796C61.2627 85.8319 61.7217 84.5812 61.7613 83.2463C62.8789 83.2008 63.9848 82.7059 64.8355 81.7296C65.3385 81.1522 65.692 80.457 65.9149 79.7046L73.3333 81.1253V83.0662C73.3333 83.9971 73.9904 84.7495 74.8 84.7495H86.5333C87.3429 84.7495 88 83.9971 88 83.0662V35.9328C88 35.002 87.3429 34.2495 86.5333 34.2495ZM11.7333 81.3828H2.93333V37.6162H11.7333V39.2995V79.6995V81.3828ZM19.0813 80.8122C18.7103 80.5445 18.4507 80.1254 18.3539 79.6339C18.3113 79.4218 18.3172 79.2063 18.3377 78.9959C18.3421 78.9403 18.3495 78.8848 18.3583 78.8275C18.3979 78.6121 18.4595 78.4017 18.5651 78.2098L22.9856 70.1516C23.0927 69.9564 23.2335 69.8032 23.3845 69.6702C23.4212 69.6382 23.4593 69.6062 23.4975 69.5776C23.6515 69.4648 23.8187 69.3739 23.9947 69.3251C24.0181 69.3184 24.0445 69.3201 24.068 69.315C24.2249 69.2797 24.3877 69.278 24.5491 69.2982C24.6019 69.3049 24.6547 69.3117 24.7075 69.3234C24.8952 69.3672 25.0815 69.4362 25.2531 69.5608C26.0201 70.1163 26.2519 71.2845 25.7693 72.1649L21.3488 80.223C20.8677 81.1017 19.8513 81.3711 19.0813 80.8122ZM24.3481 84.6199C23.5811 84.0644 23.3493 82.8962 23.8319 82.0158L25.5244 78.9302L28.2524 73.9577C28.5648 73.387 29.1001 73.0756 29.6472 73.0756C29.9464 73.0756 30.25 73.1699 30.5213 73.3668C30.8924 73.6345 31.1505 74.0536 31.2488 74.5451C31.3471 75.0367 31.2708 75.5434 31.0361 75.9692L26.6156 84.0274C26.1316 84.9077 25.1152 85.172 24.3481 84.6199ZM29.612 88.4225C29.2409 88.1549 28.9828 87.7357 28.8845 87.2459C28.7877 86.7544 28.8625 86.2477 29.0972 85.8218L33.5177 77.7637C34.0017 76.8833 35.0196 76.6156 35.7867 77.1711C36.5537 77.725 36.7855 78.8915 36.3015 79.7736L31.8795 87.8317C31.6463 88.2593 31.2811 88.5555 30.8528 88.6666C30.4275 88.7777 29.986 88.6936 29.612 88.4225ZM37.1463 91.636C36.6623 92.5181 35.6444 92.7857 34.8788 92.2286C34.1117 91.6747 33.88 90.5065 34.3625 89.6261L38.7831 81.5697C38.7831 81.5697 38.7831 81.5697 38.7831 81.568C39.0177 81.1421 39.3829 80.8442 39.8112 80.7331C39.9329 80.7011 40.0561 80.6876 40.1779 80.6876C40.4844 80.6876 40.7865 80.7869 41.052 80.9788C41.4231 81.2465 41.6827 81.6656 41.7795 82.1572C41.8763 82.647 41.8015 83.1537 41.5668 83.5796L37.1463 91.636ZM49.5631 94.5011C48.9207 95.2384 47.8793 95.2384 47.2369 94.5011L42.2077 88.7289L44.0059 85.4531L49.5631 91.8313C49.874 92.1882 50.0456 92.6612 50.0456 93.1662C50.0456 93.6712 49.874 94.1442 49.5631 94.5011ZM62.7631 79.3511C62.1207 80.0884 61.0793 80.0884 60.4369 79.3511L52.3703 70.0927L50.2964 72.473L58.3631 81.7313C58.674 82.0882 58.8456 82.5612 58.8456 83.0662C58.8456 83.5712 58.674 84.0442 58.3631 84.4011C57.7207 85.1384 56.6793 85.1384 56.0369 84.4011L47.9703 75.1427L45.8964 77.523L53.9631 86.7813C54.274 87.1382 54.4456 87.6112 54.4456 88.1162C54.4456 88.6212 54.274 89.0942 53.9631 89.4511C53.3207 90.1884 52.2793 90.1884 51.6369 89.4511L45.0369 81.8744L44.6424 81.4216C44.6409 81.4165 44.6424 81.4115 44.6409 81.4081C44.3696 80.0395 43.6509 78.8747 42.6155 78.1273C41.6284 77.4135 40.4668 77.1779 39.3213 77.427C39.0353 76.1864 38.368 75.0586 37.3501 74.3213C36.3323 73.5856 35.1575 73.3836 34.0589 73.6244C33.7627 72.3332 33.0733 71.2307 32.0848 70.5169C31.0655 69.7813 29.8907 69.5793 28.7907 69.82C28.5047 68.5777 27.8373 67.4482 26.818 66.7109C24.6825 65.1673 21.8489 65.908 20.5055 68.3589L16.0849 76.417C15.9397 76.6813 15.8209 76.9624 15.7212 77.2519C15.664 77.4135 15.6273 77.5785 15.5848 77.7452C15.5613 77.8377 15.5276 77.9253 15.5085 78.0195H14.6667V40.9828H31.6595L33.1261 42.6662L29.7631 46.5261C27.5733 49.0376 27.5733 53.1281 29.7631 55.6396C31.9513 58.1512 35.5153 58.1512 37.7036 55.6396L41.0667 51.7797L62.7631 76.6813C63.074 77.0382 63.2456 77.5112 63.2456 78.0162C63.2456 78.5212 63.074 78.9942 62.7631 79.3511ZM66.704 76.4439L64.8369 74.3011L42.1036 48.2094C41.5301 47.5512 40.6032 47.5512 40.0297 48.2094L35.6297 53.2594C34.6177 54.4226 32.8489 54.4226 31.8369 53.2594C31.7079 53.1113 31.5949 52.9497 31.4967 52.7813C31.4717 52.7376 31.4556 52.6887 31.4336 52.645C31.3661 52.5137 31.3001 52.3841 31.2503 52.246C31.2371 52.2073 31.2312 52.1652 31.218 52.1248C31.1711 51.9767 31.1271 51.8269 31.1021 51.6737C31.0933 51.6198 31.0948 51.5626 31.0875 51.5087C31.0537 51.2259 31.0537 50.9398 31.0875 50.6553C31.0933 50.6014 31.0919 50.5459 31.1007 50.4937C31.1271 50.3388 31.1711 50.189 31.218 50.0409C31.2297 50.0021 31.2356 49.9601 31.2488 49.9213C31.2987 49.7816 31.3661 49.6486 31.4336 49.5173C31.4556 49.4736 31.4703 49.4264 31.4952 49.386C31.592 49.2177 31.7049 49.0561 31.8355 48.908L36.2355 43.858L38.7405 40.9828H73.3333V77.7115L66.704 76.4439ZM85.0667 81.3828H76.2667V79.6995V39.2995V37.6162H85.0667V81.3828Z" fill="#23374E"/>
<path d="M44 34.2497C50.4695 34.2497 55.7333 28.2083 55.7333 20.7831C55.7333 13.3579 50.4695 7.31641 44 7.31641C37.5305 7.31641 32.2667 13.3579 32.2667 20.7831C32.2667 28.2083 37.5305 34.2497 44 34.2497ZM52.8 20.7831C52.8 25.7775 49.6217 29.9253 45.4667 30.7316V28.89C47.1695 28.1931 48.4 26.3414 48.4 24.1497C48.4 21.3655 46.4259 19.0997 44 19.0997C43.1919 19.0997 42.5333 18.3456 42.5333 17.4164C42.5333 16.4872 43.1919 15.7331 44 15.7331C44.8081 15.7331 45.4667 16.4872 45.4667 17.4164H48.4C48.4 15.2247 47.1695 13.373 45.4667 12.6761V10.8346C49.6217 11.6409 52.8 15.7886 52.8 20.7831ZM42.5333 10.8346V12.6761C40.8305 13.373 39.6 15.2247 39.6 17.4164C39.6 20.2006 41.5741 22.4664 44 22.4664C44.8081 22.4664 45.4667 23.2205 45.4667 24.1497C45.4667 25.0789 44.8081 25.8331 44 25.8331C43.1919 25.8331 42.5333 25.0789 42.5333 24.1497H39.6C39.6 26.3414 40.8305 28.1931 42.5333 28.89V30.7316C38.3783 29.9269 35.2 25.7792 35.2 20.7831C35.2 15.7869 38.3783 11.6409 42.5333 10.8346Z" fill="#23374E"/>
<path d="M30.3204 4.96143C29.4125 5.59268 28.5311 6.29463 27.6995 7.04539L29.5123 9.69159C30.2515 9.02499 31.0361 8.39879 31.8428 7.83656L30.3204 4.96143Z" fill="#23374E"/>
<path d="M18.0225 25.4623L20.9089 26.0599C21.0775 24.9944 21.3034 23.9288 21.5821 22.8969L18.7807 21.9004C18.4654 23.0636 18.2117 24.2621 18.0225 25.4623Z" fill="#23374E"/>
<path d="M27.3914 11.8544L25.3161 9.47412C24.5681 10.3343 23.8568 11.2568 23.2026 12.2163L25.5126 14.2901C26.0949 13.4384 26.727 12.6186 27.3914 11.8544Z" fill="#23374E"/>
<path d="M19.9085 18.4752L22.5837 19.8556C22.9709 18.8674 23.4138 17.8978 23.9008 16.9737L21.3898 15.2314C20.8428 16.2717 20.3441 17.3642 19.9085 18.4752Z" fill="#23374E"/>
<path d="M45.5767 0.636719L45.4036 3.99665C46.3496 4.06062 47.2971 4.19192 48.2196 4.38382L48.7432 1.06934C47.7048 0.855552 46.6386 0.709102 45.5767 0.636719Z" fill="#23374E"/>
<path d="M54.8284 3.24267C53.8575 2.74104 52.8528 2.30506 51.8452 1.94482L50.9725 5.15999C51.8687 5.47983 52.7619 5.86868 53.6272 6.31476L54.8284 3.24267Z" fill="#23374E"/>
<path d="M57.6547 4.94775L56.1367 7.82794C56.9405 8.3868 57.7251 9.00795 58.4687 9.6796L60.2786 7.03004C59.4411 6.2759 58.5582 5.57564 57.6547 4.94775Z" fill="#23374E"/>
<path d="M69.9717 25.4239C69.7811 24.2236 69.5258 23.0285 69.2105 21.8687L66.4106 22.8686C66.6893 23.8988 66.9166 24.9626 67.0853 26.0265L69.9717 25.4239Z" fill="#23374E"/>
<path d="M64.0845 16.9464C64.5729 17.8756 65.0173 18.8435 65.4016 19.8249L68.0768 18.4445C67.6441 17.3386 67.144 16.2478 66.594 15.2041L64.0845 16.9464Z" fill="#23374E"/>
<path d="M36.1225 1.95459C35.1091 2.31819 34.1059 2.75754 33.1423 3.25581L34.3479 6.32284C35.2059 5.87844 36.0976 5.48959 36.9981 5.16471L36.1225 1.95459Z" fill="#23374E"/>
<path d="M42.3896 0.636719C41.3278 0.710785 40.2615 0.858919 39.2231 1.07775L39.7511 4.38887C40.6736 4.19529 41.6211 4.06399 42.5656 3.99834L42.3896 0.636719Z" fill="#23374E"/>
<path d="M60.5923 11.8378C61.2567 12.6003 61.8889 13.4184 62.4741 14.2735L64.7797 12.1929C64.1226 11.2351 63.4113 10.3143 62.6662 9.45752L60.5923 11.8378Z" fill="#23374E"/>
</svg>
